<?xml version="1.0" encoding="utf-8"?>
<!-- Generator: Adobe Illustrator 24.1.2, SVG Export Plug-In . SVG Version: 6.00 Build 0)  -->
<svg version="1.1" id="Layer_1" xmlns="http://www.w3.org/2000/svg" xmlns:xlink="http://www.w3.org/1999/xlink" x="0px" y="0px"
	 viewBox="0 0 93 93.2" style="enable-background:new 0 0 93 93.2;" xml:space="preserve">
<style type="text/css">
	.st0{fill:none;}
	.st1{opacity:0.35;}
	.st2{fill:#001FFF;stroke:#0B40FF;stroke-miterlimit:10;}
	.st3{fill:none;stroke:#9900FF;stroke-width:2;stroke-miterlimit:10;}
</style>
<circle class="st0" cx="47.2" cy="47.3" r="44.5"/>
<g class="st1">
	<path class="st2" d="M46.7,79.4c-0.5,0-1.1-0.1-1.6-0.2c-16.5-1.2-29.4-15-29.4-31.5C15.7,30.2,29.9,16,47.3,16
		c17.1,0,31.3,13.9,31.6,31c0.1,0.5,0.1,0.9,0.1,1.4c0,3.8-3.1,6.9-6.9,6.9s-6.9-3.1-6.9-6.9c0-0.3,0-0.7,0.1-1.1
		c-0.1-9.8-8.2-17.7-17.9-17.7c-9.9,0-17.9,8.1-17.9,18c0,9.7,7.6,17.6,17.3,17.9h0.1c0.2,0,0.4,0,0.5,0h1v0.2
		c3,0.8,5.2,3.5,5.2,6.7C53.5,76.3,50.5,79.4,46.7,79.4z M47.3,18C31,18,17.7,31.3,17.7,47.6c0,15.6,12.1,28.6,27.6,29.6h0.2
		c3.2,0.8,6.1-1.6,6.1-4.7c0-2.5-1.9-4.6-4.3-4.9h-0.2c-0.1,0-0.2,0-0.3,0h-0.1c-10.8-0.4-19.2-9.2-19.2-19.9c0-11,8.9-20,19.9-20
		c10.9,0,19.8,8.9,19.9,19.7v0.1v0.1c-0.1,0.3-0.1,0.6-0.1,0.8c0,2.7,2.2,4.9,4.9,4.9c2.7,0,4.9-2.2,4.9-4.9c0-0.4,0-0.7-0.1-1.1
		v-0.2C76.6,31.1,63.4,18,47.3,18z"/>
</g>
<g class="st1">
	<path class="st2" d="M68.9,76.2c-2.1,0-4.2-0.9-5.5-2.6L44.7,54.8l0.1-0.1c-0.9-1.2-1.4-2.6-1.4-4.1c0-3.9,3.1-7,7-7
		c1.5,0,2.9,0.5,4.1,1.4l0.2-0.2l19,19c1.6,1.3,2.5,3.3,2.5,5.4C76.1,73,72.9,76.2,68.9,76.2z M47.5,54.8l17.5,17.5
		c1,1.3,2.5,1.9,4.1,1.9c2.8,0,5.2-2.3,5.2-5.1c0-1.5-0.7-2.9-1.8-3.9L54.7,47.6l-0.1,0.1L53.9,47c-0.9-0.9-2.2-1.4-3.5-1.4
		c-2.8,0-5,2.2-5,5c0,1.3,0.5,2.6,1.4,3.5L47.5,54.8L47.5,54.8z"/>
</g>
<g class="st1">
	<path class="st2" d="M47.5,92.4C23,92.4,3,72.4,3,47.9S23,3.4,47.5,3.4s44.5,20,44.5,44.5S72.1,92.4,47.5,92.4z M47.5,5.4
		C24.2,5.4,5.1,24.5,5.1,47.9s19.1,42.5,42.5,42.5s42.5-19.1,42.5-42.5S70.9,5.4,47.5,5.4z"/>
</g>
<path class="st3" d="M77.9,47.2c-0.3-16.7-13.9-30.1-30.6-30.1c-16.9,0-30.6,13.7-30.6,30.6c0,16.2,12.6,29.5,28.5,30.5
	c0.5,0.1,1,0.2,1.5,0.2c3.3,0,5.9-2.6,5.9-5.9c0-3-2.3-5.5-5.2-5.9l0,0c-0.2,0-0.4,0-0.7,0l0,0l0,0c-10.2-0.4-18.3-8.7-18.3-18.9
	c0-10.5,8.5-19,18.9-19s18.8,8.4,18.9,18.8c-0.1,0.3-0.1,0.7-0.1,1c0,3.3,2.6,5.9,5.9,5.9s5.9-2.6,5.9-5.9
	C78.1,48,77.9,47.6,77.9,47.2z"/>
<path class="st3" d="M72.9,64.4L54.7,46.2l-0.1,0.1c-1.1-1.1-2.6-1.7-4.2-1.7c-3.3,0-6,2.7-6,6c0,1.6,0.7,3.1,1.7,4.2L46,54.9
	l18.2,18.2c1.1,1.4,2.8,2.2,4.8,2.2c3.4,0,6.2-2.7,6.2-6.1C75.1,67.2,74.3,65.5,72.9,64.4z"/>
<ellipse class="st3" cx="46.9" cy="47.1" rx="43.8" ry="43.7"/>
</svg>
