<?xml version="1.0" encoding="utf-8"?>
<!-- Generator: Adobe Illustrator 24.1.2, SVG Export Plug-In . SVG Version: 6.00 Build 0)  -->
<svg version="1.1" id="Layer_1" xmlns="http://www.w3.org/2000/svg" xmlns:xlink="http://www.w3.org/1999/xlink" x="0px" y="0px"
	 viewBox="0 0 299.7 93.2" style="enable-background:new 0 0 299.7 93.2;" xml:space="preserve">
<style type="text/css">
	.st0{fill:none;}
	.st1{opacity:0.35;}
	.st2{fill:#001FFF;stroke:#0B40FF;stroke-miterlimit:10;}
	.st3{fill:none;stroke:#9900FF;stroke-width:2;stroke-miterlimit:10;}
	.st4{fill:#FFFFFF;}
</style>
<circle class="st0" cx="46.2" cy="46.3" r="44.5"/>
<g class="st1">
	<path class="st2" d="M45.7,78.4c-0.5,0-1.1-0.1-1.6-0.2c-16.5-1.2-29.4-15-29.4-31.5C14.7,29.2,28.9,15,46.3,15
		c17.1,0,31.3,13.9,31.6,31c0.1,0.5,0.1,0.9,0.1,1.4c0,3.8-3.1,6.9-6.9,6.9s-6.9-3.1-6.9-6.9c0-0.3,0-0.7,0.1-1.1
		c-0.1-9.8-8.2-17.7-17.9-17.7c-9.9,0-17.9,8.1-17.9,18c0,9.7,7.6,17.6,17.3,17.9h0.1c0.2,0,0.4,0,0.5,0h1v0.2
		c3,0.8,5.2,3.5,5.2,6.7C52.6,75.3,49.5,78.4,45.7,78.4z M46.3,17C30,17,16.7,30.3,16.7,46.6c0,15.6,12.1,28.6,27.6,29.6h0.2
		c3.2,0.8,6.1-1.6,6.1-4.7c0-2.5-1.9-4.6-4.3-4.9h-0.2c-0.1,0-0.2,0-0.3,0h-0.1c-10.8-0.4-19.2-9.2-19.2-19.9c0-11,8.9-20,19.9-20
		c10.9,0,19.8,8.9,19.9,19.7v0.1v0.1c-0.1,0.3-0.1,0.6-0.1,0.8c0,2.7,2.2,4.9,4.9,4.9s4.9-2.2,4.9-4.9c0-0.4,0-0.7-0.1-1.1v-0.2
		C75.7,30.1,62.4,17,46.3,17z"/>
</g>
<g class="st1">
	<path class="st2" d="M68,75.2c-2.1,0-4.2-0.9-5.5-2.6L43.7,53.8l0.1-0.1c-0.9-1.2-1.4-2.6-1.4-4.1c0-3.9,3.1-7,7-7
		c1.5,0,2.9,0.5,4.1,1.4l0.2-0.2l19,19c1.6,1.3,2.5,3.3,2.5,5.4C75.2,72,72,75.2,68,75.2z M46.5,53.8L64,71.3c1,1.3,2.5,1.9,4.1,1.9
		c2.8,0,5.2-2.3,5.2-5.1c0-1.5-0.7-2.9-1.8-3.9L53.7,46.6l-0.1,0.1L52.9,46c-0.9-0.9-2.2-1.4-3.5-1.4c-2.8,0-5,2.2-5,5
		c0,1.3,0.5,2.6,1.4,3.5L46.5,53.8L46.5,53.8z"/>
</g>
<g class="st1">
	<path class="st2" d="M46.6,91.4c-24.5,0-44.5-20-44.5-44.5s20-44.5,44.5-44.5s44.5,20,44.5,44.5S71.1,91.4,46.6,91.4z M46.6,4.4
		C23.2,4.4,4.1,23.5,4.1,46.9s19.1,42.5,42.5,42.5s42.5-19.1,42.5-42.5S70,4.4,46.6,4.4z"/>
</g>
<path class="st3" d="M77,46.2c-0.3-16.7-13.9-30.1-30.6-30.1c-16.9,0-30.6,13.7-30.6,30.6c0,16.2,12.6,29.5,28.5,30.5
	c0.5,0.1,1,0.2,1.5,0.2c3.3,0,5.9-2.6,5.9-5.9c0-3-2.3-5.5-5.2-5.9l0,0c-0.2,0-0.4,0-0.7,0l0,0l0,0c-10.2-0.4-18.3-8.7-18.3-18.9
	c0-10.5,8.5-19,18.9-19s18.8,8.4,18.9,18.8c-0.1,0.3-0.1,0.7-0.1,1c0,3.3,2.6,5.9,5.9,5.9s5.9-2.6,5.9-5.9C77.1,47,77,46.6,77,46.2z
	"/>
<path class="st3" d="M72,63.4L53.7,45.2l-0.1,0.1c-1.1-1.1-2.6-1.7-4.2-1.7c-3.3,0-6,2.7-6,6c0,1.6,0.7,3.1,1.7,4.2L45,53.9
	l18.2,18.2c1.1,1.4,2.8,2.2,4.8,2.2c3.4,0,6.2-2.7,6.2-6.1C74.2,66.2,73.3,64.5,72,63.4z"/>
<ellipse class="st3" cx="45.9" cy="46.1" rx="43.8" ry="43.7"/>
<path class="st4" d="M115.2,43.4c-1.3,0-2.2-0.2-3.4-1.8c-0.7,0.4-1.7,0.6-2.8,0.6c-3.6,0-5.2-2.3-5.2-5.1V27c0-2.8,1.6-5.1,5.2-5.1
	s5.2,2.3,5.2,5.1v10.2c0,0.9-0.2,1.8-0.6,2.5c0.8,0.7,1.2,0.7,1.6,0.8C115.2,40.5,115.2,43.4,115.2,43.4z M109.2,34.9
	c0.4,0.2,0.9,0.5,1.6,1.2v-9c0-1.5-0.4-2.2-1.8-2.2s-1.8,0.7-1.8,2.2v10c0,1.5,0.4,2.2,1.8,2.2c0.5,0,0.9-0.1,1.1-0.3
	c-0.4-0.7-0.7-0.9-0.9-1.1C109.2,37.9,109.2,34.9,109.2,34.9z"/>
<path class="st4" d="M126.4,27.2v14.7h-2.9v-1.5c-1.3,1.1-1.9,1.8-3.7,1.8c-1.6,0-2.6-1.2-2.6-3.1V27.2h3.1v11.4
	c0,0.7,0.4,1.1,1.1,1.1s1.3-0.4,2-0.9V27.2H126.4z"/>
<path class="st4" d="M129.1,31.5c0.2-3,2.1-4.6,4.9-4.6c2.8,0,4.5,1.3,4.5,4v9.4c0,0.5,0.1,1.1,0.2,1.6h-2.9c0-0.4-0.1-0.8-0.2-1.1
	c-1.1,0.9-2.1,1.4-3.6,1.4c-2.1,0-3.1-1.4-3.1-3.3c0-3.2,2.1-5,6.5-6.7v-0.9c0-1.2-0.5-1.9-1.5-1.9c-1.4,0-1.7,0.8-1.8,2.1
	C132.1,31.5,129.1,31.5,129.1,31.5z M135.4,34.5c-2.8,1.6-3.5,2.6-3.5,3.9c0,1,0.5,1.3,1.4,1.3c0.8,0,1.5-0.6,2.1-1.4V34.5
	L135.4,34.5z"/>
<path class="st4" d="M141.5,41.9V27.2h2.9v1.5c1.3-1.1,1.9-1.8,3.7-1.8c1.6,0,2.6,1.2,2.6,3.1v11.9h-3.1V30.5c0-0.7-0.4-1.1-1.1-1.1
	c-0.7,0-1.3,0.4-2,0.9v11.5L141.5,41.9L141.5,41.9z"/>
<path class="st4" d="M152.5,29.7v-2.5h1.7v-4h3.1v4h2.1v2.5h-2.1v8.5c0,0.8,0.3,1.2,1,1.2h1V42c-0.4,0.1-0.8,0.2-1.5,0.2
	c-2.3,0-3.6-1.1-3.6-3.3v-9.2H152.5L152.5,29.7z"/>
<path class="st4" d="M170.5,27.2v14.7h-2.9v-1.5c-1.3,1.1-1.9,1.8-3.7,1.8c-1.6,0-2.6-1.2-2.6-3.1V27.2h3.1v11.4
	c0,0.7,0.4,1.1,1.1,1.1s1.3-0.4,2-0.9V27.2H170.5z"/>
<path class="st4" d="M179.5,41.9V30.5c0-0.7-0.5-1.1-1.1-1.1c-0.7,0-1.3,0.4-2,0.9v11.5h-3.1V27.2h2.9v1.5c1.3-1.1,1.9-1.8,3.4-1.8
	s2,0.5,2.7,1.8c1.5-1.4,2.3-1.8,3.4-1.8c1.9,0,2.9,1.2,2.9,3.1v11.9h-3.1V30.5c0-0.7-0.5-1.1-1.1-1.1c-0.7,0-1.3,0.4-1.9,0.9v11.5
	L179.5,41.9L179.5,41.9z"/>
<path class="st4" d="M211.5,22.2v19.7h-3V26.5h-0.1l-3.1,15.4h-1.6l-3.1-15.4h-0.1v15.4h-3V22.2h4.5l2.4,11.5h0.1l2.4-11.5
	C207,22.2,211.5,22.2,211.5,22.2z"/>
<path class="st4" d="M214.1,31.5c0.2-3,2.1-4.6,4.9-4.6c2.8,0,4.5,1.3,4.5,4v9.4c0,0.5,0.1,1.1,0.2,1.6h-2.9c0-0.4-0.1-0.8-0.2-1.1
	c-1.1,0.9-2.1,1.4-3.6,1.4c-2.1,0-3.1-1.4-3.1-3.3c0-3.2,2.1-5,6.5-6.7v-0.9c0-1.2-0.5-1.9-1.5-1.9c-1.4,0-1.7,0.8-1.8,2.1
	C217.1,31.5,214.1,31.5,214.1,31.5z M220.4,34.5c-2.8,1.6-3.5,2.6-3.5,3.9c0,1,0.5,1.3,1.4,1.3c0.8,0,1.5-0.6,2.1-1.4V34.5
	L220.4,34.5z"/>
<path class="st4" d="M225.4,29.7v-2.5h1.7v-4h3.1v4h2.1v2.5h-2.1v8.5c0,0.8,0.3,1.2,1,1.2h1V42c-0.4,0.1-0.8,0.2-1.5,0.2
	c-2.3,0-3.6-1.1-3.6-3.3v-9.2H225.4L225.4,29.7z"/>
<path class="st4" d="M243.5,35.2H237v2.1c0,1.7,0.6,2.4,1.7,2.4s1.7-0.7,1.7-2.4V37h3.1c-0.1,3.1-1.3,5.3-4.8,5.3s-4.8-2.2-4.8-5.5
	v-4.3c0-3.2,1.3-5.5,4.8-5.5s4.8,2.2,4.8,5.5V35.2L243.5,35.2z M240.5,32.6v-0.8c0-1.7-0.6-2.4-1.7-2.4s-1.7,0.7-1.7,2.4v0.8H240.5z
	"/>
<path class="st4" d="M246.3,41.9V27.2h2.9v1.7h0.1c0.7-1.3,2-2,3.5-2h0.6v3.3c-0.5-0.1-1.1-0.3-2-0.3c-1,0-2.1,0.7-2.1,2V42
	L246.3,41.9L246.3,41.9z"/>
<path class="st4" d="M255.5,25v-2.8h3.1V25H255.5z M255.5,41.9V27.2h3.1v14.7H255.5z"/>
<path class="st4" d="M261.2,31.5c0.2-3,2.1-4.6,4.9-4.6s4.5,1.3,4.5,4v9.4c0,0.5,0.1,1.1,0.2,1.6h-2.9c0-0.4-0.1-0.8-0.2-1.1
	c-1.1,0.9-2.1,1.4-3.6,1.4c-2.1,0-3.1-1.4-3.1-3.3c0-3.2,2.1-5,6.5-6.7v-0.9c0-1.2-0.5-1.9-1.5-1.9c-1.4,0-1.7,0.8-1.8,2.1
	C264.2,31.5,261.2,31.5,261.2,31.5z M267.5,34.5c-2.8,1.6-3.5,2.6-3.5,3.9c0,1,0.5,1.3,1.4,1.3c0.8,0,1.5-0.6,2.1-1.4V34.5z"/>
<path class="st4" d="M273.7,41.9V22.2h3.1v19.7H273.7z"/>
<path class="st4" d="M285.3,31.3c-0.2-1.2-0.8-1.8-1.8-1.8c-0.8,0-1.3,0.4-1.3,1.2c0,2.3,5.7,3.2,5.7,7.6c0,2.6-1.8,4-4.3,4
	c-2.7,0-4.2-1.5-4.7-4.1l2.7-0.7c0.2,1.2,0.6,2.3,2,2.3c0.8,0,1.4-0.5,1.4-1.3c0-2.5-5.7-3.5-5.7-7.5c0-2.3,1.8-3.9,4.1-3.9
	c2.4,0,4,1.6,4.5,3.9L285.3,31.3z"/>
<path class="st4" d="M103.8,49.4c0-2.8,1.6-5.1,5.2-5.1s5.2,2.3,5.2,5.1v10.2c0,2.8-1.6,5.1-5.2,5.1s-5.2-2.3-5.2-5.1V49.4z
	 M107.1,59.5c0,1.5,0.4,2.2,1.8,2.2s1.8-0.7,1.8-2.2v-10c0-1.5-0.4-2.2-1.8-2.2s-1.8,0.7-1.8,2.2V59.5z"/>
<path class="st4" d="M120.2,49.6v1.6h0.1c1-1.3,1.7-1.8,3.3-1.8c1.9,0,3.1,1.4,3.1,4.1v7.1c0,2.7-1.2,4.1-3.1,4.1
	c-1.3,0-2-0.5-3.2-1.5v5.9h-3.1V49.6H120.2L120.2,49.6z M120.3,61.3c0.6,0.4,1.1,0.8,1.7,0.8c0.8,0,1.5-0.4,1.5-2.4v-5.5
	c0-1.9-0.7-2.4-1.5-2.4c-0.6,0-1.1,0.3-1.8,0.8L120.3,61.3L120.3,61.3z"/>
<path class="st4" d="M128.2,52.2v-2.5h1.7v-4h3.1v4h2.1v2.5H133v8.5c0,0.8,0.3,1.2,1,1.2h1v2.6c-0.4,0.1-0.8,0.2-1.5,0.2
	c-2.3,0-3.6-1.1-3.6-3.3v-9.2C129.9,52.2,128.2,52.2,128.2,52.2z"/>
<path class="st4" d="M136.8,54.8c0-3.2,1.3-5.5,4.8-5.5s4.8,2.2,4.8,5.5v4.4c0,3.2-1.3,5.5-4.8,5.5s-4.8-2.2-4.8-5.5V54.8z
	 M143.3,54.3c0-1.7-0.6-2.4-1.7-2.4s-1.7,0.7-1.7,2.4v5.4c0,1.7,0.6,2.4,1.7,2.4s1.7-0.7,1.7-2.4V54.3z"/>
<path class="st4" d="M158.5,57.6H152v2.1c0,1.7,0.6,2.4,1.7,2.4s1.7-0.7,1.7-2.4v-0.3h3.1c-0.1,3.1-1.3,5.3-4.8,5.3
	s-4.8-2.2-4.8-5.5v-4.3c0-3.2,1.3-5.5,4.8-5.5s4.8,2.2,4.8,5.5V57.6L158.5,57.6z M155.4,55.1v-0.8c0-1.7-0.6-2.4-1.7-2.4
	s-1.7,0.7-1.7,2.4v0.8H155.4L155.4,55.1z"/>
<path class="st4" d="M161.3,64.3V44.6h3.1v19.7C164.4,64.3,161.3,64.3,161.3,64.3z"/>
<path class="st4" d="M176.7,57.6h-6.5v2.1c0,1.7,0.6,2.4,1.7,2.4s1.7-0.7,1.7-2.4v-0.3h3.1c-0.1,3.1-1.3,5.3-4.8,5.3
	s-4.8-2.2-4.8-5.5v-4.3c0-3.2,1.3-5.5,4.8-5.5s4.8,2.2,4.8,5.5V57.6L176.7,57.6z M173.6,55.1v-0.8c0-1.7-0.6-2.4-1.7-2.4
	s-1.7,0.7-1.7,2.4v0.8H173.6L173.6,55.1z"/>
<path class="st4" d="M185.8,54.7v-0.4c0-1.7-0.6-2.4-1.7-2.4c-1.1,0-1.7,0.7-1.7,2.4v5.4c0,1.7,0.6,2.4,1.7,2.4s1.7-0.7,1.7-2.4
	v-0.9h3.1v0.4c0,3.2-1.3,5.5-4.8,5.5s-4.8-2.2-4.8-5.5v-4.3c0-3.2,1.3-5.5,4.8-5.5c3.4,0,4.7,2.2,4.8,5.3L185.8,54.7L185.8,54.7z"/>
<path class="st4" d="M190.4,52.2v-2.5h1.7v-4h3.1v4h2.1v2.5h-2.1v8.5c0,0.8,0.3,1.2,1,1.2h1v2.6c-0.4,0.1-0.8,0.2-1.5,0.2
	c-2.3,0-3.6-1.1-3.6-3.3v-9.2C192.1,52.2,190.4,52.2,190.4,52.2z"/>
<path class="st4" d="M199.2,64.3V49.6h2.9v1.7h0.1c0.7-1.3,2-2,3.5-2h0.6v3.2c-0.5-0.1-1.1-0.3-2-0.3c-1,0-2.1,0.7-2.1,2v10.1H199.2
	z"/>
<path class="st4" d="M208.2,54.8c0-3.2,1.3-5.5,4.8-5.5s4.8,2.2,4.8,5.5v4.4c0,3.2-1.3,5.5-4.8,5.5s-4.8-2.2-4.8-5.5V54.8z
	 M214.6,54.3c0-1.7-0.6-2.4-1.7-2.4s-1.7,0.7-1.7,2.4v5.4c0,1.7,0.6,2.4,1.7,2.4s1.7-0.7,1.7-2.4V54.3z"/>
<path class="st4" d="M220.5,64.3V49.6h2.9v1.5c1.3-1.1,1.9-1.8,3.7-1.8c1.6,0,2.6,1.2,2.6,3.1v11.9h-3.1V52.9c0-0.7-0.4-1.1-1.1-1.1
	c-0.7,0-1.3,0.4-2,0.9v11.5L220.5,64.3L220.5,64.3L220.5,64.3z"/>
<path class="st4" d="M232.7,47.4v-2.8h3.1v2.8H232.7z M232.7,64.3V49.6h3.1v14.7C235.8,64.3,232.7,64.3,232.7,64.3z"/>
<path class="st4" d="M245,54.7v-0.4c0-1.7-0.6-2.4-1.7-2.4s-1.7,0.7-1.7,2.4v5.4c0,1.7,0.6,2.4,1.7,2.4c1.1,0,1.7-0.7,1.7-2.4v-0.9
	h3.1v0.4c0,3.2-1.3,5.5-4.8,5.5s-4.8-2.2-4.8-5.5v-4.3c0-3.2,1.3-5.5,4.8-5.5c3.4,0,4.7,2.2,4.8,5.3L245,54.7L245,54.7z"/>
<path class="st4" d="M256.4,53.7c-0.2-1.2-0.8-1.8-1.8-1.8c-0.8,0-1.3,0.4-1.3,1.2c0,2.3,5.7,3.2,5.7,7.6c0,2.6-1.8,4-4.3,4
	c-2.7,0-4.2-1.5-4.7-4.1l2.7-0.7c0.2,1.2,0.6,2.3,2,2.3c0.8,0,1.4-0.5,1.4-1.3c0-2.5-5.7-3.5-5.7-7.5c0-2.3,1.8-3.9,4.1-3.9
	c2.4,0,4,1.6,4.5,3.9L256.4,53.7z"/>
<path class="st4" d="M267.5,64.3V44.6h3.4v16.8h5.3v3L267.5,64.3L267.5,64.3z"/>
<path class="st4" d="M277.9,54c0.2-3,2.1-4.6,4.9-4.6s4.5,1.3,4.5,4v9.4c0,0.5,0.1,1.1,0.2,1.6h-2.9c0-0.4-0.1-0.8-0.2-1.1
	c-1.1,0.9-2.1,1.4-3.6,1.4c-2.1,0-3.1-1.4-3.1-3.3c0-3.2,2.1-5,6.5-6.7v-0.9c0-1.2-0.5-1.9-1.5-1.9c-1.4,0-1.7,0.8-1.8,2.1H277.9z
	 M284.2,56.9c-2.8,1.6-3.5,2.6-3.5,3.9c0,1,0.5,1.3,1.4,1.3c0.8,0,1.5-0.6,2.1-1.4V56.9z"/>
<path class="st4" d="M290.3,64.3V44.6h3.1v6.3c1.2-1,1.8-1.5,3.2-1.5c1.9,0,3.1,1.4,3.1,4.1v7.1c0,2.7-1.2,4.1-3.1,4.1
	c-1.5,0-2.3-0.5-3.3-1.8h-0.1v1.5L290.3,64.3L290.3,64.3z M293.4,61.3c0.6,0.4,1.1,0.8,1.8,0.8c0.8,0,1.5-0.4,1.5-2.4v-5.5
	c0-1.9-0.7-2.4-1.5-2.4c-0.6,0-1.1,0.3-1.8,0.8V61.3z"/>
</svg>
