<?xml version="1.0" encoding="utf-8"?>
<!-- Generator: Adobe Illustrator 24.1.1, SVG Export Plug-In . SVG Version: 6.00 Build 0)  -->
<svg version="1.1" id="Layer_1" xmlns="http://www.w3.org/2000/svg" xmlns:xlink="http://www.w3.org/1999/xlink" x="0px" y="0px"
	 viewBox="0 0 320 108" style="enable-background:new 0 0 320 108;" xml:space="preserve">
<style type="text/css">
	.st0{fill:#212121;}
	.st1{opacity:0.35;filter:url(#AI_GaussianBlur_1);}
	.st2{fill:#001FFF;stroke:#0B40FF;stroke-miterlimit:10;}
	.st3{fill:none;stroke:#9900FF;stroke-width:2;stroke-miterlimit:10;}
	.st4{fill:#FFFFFF;}
</style>
<filter  id="AI_GaussianBlur_1">
	<feGaussianBlur  stdDeviation="1"></feGaussianBlur>
</filter>
<circle class="st0" cx="51.3" cy="52.1" r="44.5"/>
<g class="st1">
	<path class="st2" d="M50.8,84.2c-0.5,0-1.1-0.1-1.6-0.2c-16.5-1.2-29.4-15-29.4-31.5C19.8,35,34,20.8,51.4,20.8
		c17.1,0,31.3,13.9,31.6,31c0.1,0.5,0.1,0.9,0.1,1.4c0,3.8-3.1,6.9-6.9,6.9s-6.9-3.1-6.9-6.9c0-0.3,0-0.7,0.1-1.1
		c-0.1-9.8-8.2-17.7-17.9-17.7c-9.9,0-17.9,8.1-17.9,18c0,9.7,7.6,17.6,17.3,17.9l0.1,0c0.2,0,0.4,0,0.5,0h1v0.2
		c3,0.8,5.2,3.5,5.2,6.7C57.7,81.1,54.6,84.2,50.8,84.2z M51.4,22.8c-16.3,0-29.6,13.3-29.6,29.6C21.8,68,33.9,81,49.4,82l0.2,0
		c3.2,0.8,6.1-1.6,6.1-4.7c0-2.5-1.9-4.6-4.3-4.9l-0.2,0c-0.1,0-0.2,0-0.3,0l-0.1,0C40,72,31.6,63.2,31.6,52.5c0-11,8.9-20,19.9-20
		c10.9,0,19.8,8.9,19.9,19.7l0,0.1l0,0.1c-0.1,0.3-0.1,0.6-0.1,0.8c0,2.7,2.2,4.9,4.9,4.9s4.9-2.2,4.9-4.9c0-0.4,0-0.7-0.1-1.1
		l0-0.2C80.8,35.9,67.5,22.8,51.4,22.8z"/>
</g>
<g class="st1">
	<path class="st2" d="M73.1,81c-2.1,0-4.2-0.9-5.5-2.6L48.8,59.6l0.1-0.1c-0.9-1.2-1.4-2.6-1.4-4.1c0-3.9,3.1-7,7-7
		c1.5,0,2.9,0.5,4.1,1.4l0.2-0.2l19,19c1.6,1.3,2.5,3.3,2.5,5.4C80.3,77.8,77.1,81,73.1,81z M51.6,59.6l17.5,17.5
		c1,1.3,2.5,1.9,4.1,1.9c2.8,0,5.2-2.3,5.2-5.1c0-1.5-0.7-2.9-1.8-3.9L58.8,52.4l-0.1,0.1L58,51.8c-0.9-0.9-2.2-1.4-3.5-1.4
		c-2.8,0-5,2.2-5,5c0,1.3,0.5,2.6,1.4,3.5L51.6,59.6L51.6,59.6z"/>
</g>
<g class="st1">
	<path class="st2" d="M51.7,97.2c-24.5,0-44.5-20-44.5-44.5s20-44.5,44.5-44.5s44.5,20,44.5,44.5S76.2,97.2,51.7,97.2z M51.7,10.2
		c-23.4,0-42.5,19.1-42.5,42.5c0,23.4,19.1,42.5,42.5,42.5s42.5-19.1,42.5-42.5C94.2,29.3,75.1,10.2,51.7,10.2z"/>
</g>
<path class="st3" d="M82.1,52c-0.3-16.7-13.9-30.1-30.6-30.1c-16.9,0-30.6,13.7-30.6,30.6c0,16.2,12.6,29.5,28.5,30.5
	c0.5,0.1,1,0.2,1.5,0.2c3.3,0,5.9-2.6,5.9-5.9c0-3-2.3-5.5-5.2-5.9v0c-0.2,0-0.4,0-0.7,0c0,0,0,0,0,0c0,0,0,0,0,0
	C40.7,71,32.6,62.7,32.6,52.5c0-10.5,8.5-19,18.9-19c10.4,0,18.8,8.4,18.9,18.8c-0.1,0.3-0.1,0.7-0.1,1c0,3.3,2.6,5.9,5.9,5.9
	s5.9-2.6,5.9-5.9C82.2,52.8,82.1,52.4,82.1,52z"/>
<path class="st3" d="M77.1,69.2L58.8,51l-0.1,0.1c-1.1-1.1-2.6-1.7-4.2-1.7c-3.3,0-6,2.7-6,6c0,1.6,0.7,3.1,1.7,4.2l-0.1,0.1
	l18.2,18.2c1.1,1.4,2.8,2.2,4.8,2.2c3.4,0,6.2-2.7,6.2-6.1C79.3,72,78.4,70.3,77.1,69.2z"/>
<ellipse class="st3" cx="51" cy="51.9" rx="43.8" ry="43.7"/>
<path class="st4" d="M120.3,49.2c-1.3,0-2.2-0.2-3.4-1.8c-0.7,0.4-1.7,0.6-2.8,0.6c-3.6,0-5.2-2.3-5.2-5.1V32.8
	c0-2.8,1.6-5.1,5.2-5.1s5.2,2.3,5.2,5.1V43c0,0.9-0.2,1.8-0.6,2.5c0.8,0.7,1.2,0.7,1.6,0.8V49.2z M114.3,40.7
	c0.4,0.2,0.9,0.5,1.6,1.2v-9c0-1.5-0.4-2.2-1.8-2.2s-1.8,0.7-1.8,2.2v10c0,1.5,0.4,2.2,1.8,2.2c0.5,0,0.9-0.1,1.1-0.3
	c-0.4-0.7-0.7-0.9-0.9-1.1V40.7z"/>
<path class="st4" d="M131.5,33v14.7h-2.9v-1.5c-1.3,1.1-1.9,1.8-3.7,1.8c-1.6,0-2.6-1.2-2.6-3.1V33h3.1v11.4c0,0.7,0.4,1.1,1.1,1.1
	c0.7,0,1.3-0.4,2-0.9V33H131.5z"/>
<path class="st4" d="M134.2,37.3c0.2-3,2.1-4.6,4.9-4.6c2.8,0,4.5,1.3,4.5,4v9.4c0,0.5,0.1,1.1,0.2,1.6h-2.9c0-0.4-0.1-0.8-0.2-1.1
	c-1.1,0.9-2.1,1.4-3.6,1.4c-2.1,0-3.1-1.4-3.1-3.3c0-3.2,2.1-5,6.5-6.7v-0.9c0-1.2-0.5-1.9-1.5-1.9c-1.4,0-1.7,0.8-1.8,2.1H134.2z
	 M140.5,40.3c-2.8,1.6-3.5,2.6-3.5,3.9c0,1,0.5,1.3,1.4,1.3c0.8,0,1.5-0.6,2.1-1.4L140.5,40.3L140.5,40.3z"/>
<path class="st4" d="M146.6,47.7V33h2.9v1.5c1.3-1.1,1.9-1.8,3.7-1.8c1.6,0,2.6,1.2,2.6,3.1v11.9h-3.1V36.3c0-0.7-0.4-1.1-1.1-1.1
	c-0.7,0-1.3,0.4-2,0.9v11.5L146.6,47.7L146.6,47.7z"/>
<path class="st4" d="M157.6,35.5V33h1.7v-4h3.1v4h2.1v2.5h-2.1V44c0,0.8,0.3,1.2,1,1.2h1v2.6c-0.4,0.1-0.8,0.2-1.5,0.2
	c-2.3,0-3.6-1.1-3.6-3.3v-9.2L157.6,35.5L157.6,35.5z"/>
<path class="st4" d="M175.6,33v14.7h-2.9v-1.5c-1.3,1.1-1.9,1.8-3.7,1.8c-1.6,0-2.6-1.2-2.6-3.1V33h3.1v11.4c0,0.7,0.4,1.1,1.1,1.1
	s1.3-0.4,2-0.9V33H175.6z"/>
<path class="st4" d="M184.6,47.7V36.3c0-0.7-0.5-1.1-1.1-1.1c-0.7,0-1.3,0.4-2,0.9v11.5h-3.1V33h2.9v1.5c1.3-1.1,1.9-1.8,3.4-1.8
	c1.5,0,2,0.5,2.7,1.8c1.5-1.4,2.3-1.8,3.4-1.8c1.9,0,2.9,1.2,2.9,3.1v11.9h-3.1V36.3c0-0.7-0.5-1.1-1.1-1.1c-0.7,0-1.3,0.4-1.9,0.9
	v11.5L184.6,47.7L184.6,47.7z"/>
<path class="st4" d="M216.6,28v19.7h-3V32.3h-0.1l-3.1,15.4h-1.6l-3.1-15.4h-0.1v15.4h-3V28h4.5l2.4,11.5h0.1l2.4-11.5
	C212.1,28,216.6,28,216.6,28z"/>
<path class="st4" d="M219.2,37.3c0.2-3,2.1-4.6,4.9-4.6c2.8,0,4.5,1.3,4.5,4v9.4c0,0.5,0.1,1.1,0.2,1.6h-2.9c0-0.4-0.1-0.8-0.2-1.1
	c-1.1,0.9-2.1,1.4-3.6,1.4c-2.1,0-3.1-1.4-3.1-3.3c0-3.2,2.1-5,6.5-6.7v-0.9c0-1.2-0.5-1.9-1.5-1.9c-1.4,0-1.7,0.8-1.8,2.1H219.2z
	 M225.5,40.3c-2.8,1.6-3.5,2.6-3.5,3.9c0,1,0.5,1.3,1.4,1.3c0.8,0,1.5-0.6,2.1-1.4L225.5,40.3L225.5,40.3z"/>
<path class="st4" d="M230.5,35.5V33h1.7v-4h3.1v4h2.1v2.5h-2.1V44c0,0.8,0.3,1.2,1,1.2h1v2.6c-0.4,0.1-0.8,0.2-1.5,0.2
	c-2.3,0-3.6-1.1-3.6-3.3v-9.2L230.5,35.5L230.5,35.5z"/>
<path class="st4" d="M248.6,41h-6.5v2.1c0,1.7,0.6,2.4,1.7,2.4s1.7-0.7,1.7-2.4v-0.3h3.1c-0.1,3.1-1.3,5.3-4.8,5.3
	c-3.5,0-4.8-2.2-4.8-5.5v-4.3c0-3.2,1.3-5.5,4.8-5.5s4.8,2.2,4.8,5.5L248.6,41C248.6,41,248.6,41,248.6,41z M245.6,38.4v-0.8
	c0-1.7-0.6-2.4-1.7-2.4s-1.7,0.7-1.7,2.4v0.8H245.6z"/>
<path class="st4" d="M251.4,47.7V33h2.9v1.7h0.1c0.7-1.3,2-2,3.5-2h0.6V36c-0.5-0.1-1.1-0.3-2-0.3c-1,0-2.1,0.7-2.1,2v10.1
	L251.4,47.7L251.4,47.7z"/>
<path class="st4" d="M260.6,30.8V28h3.1v2.8H260.6z M260.6,47.7V33h3.1v14.7H260.6z"/>
<path class="st4" d="M266.3,37.3c0.2-3,2.1-4.6,4.9-4.6c2.8,0,4.5,1.3,4.5,4v9.4c0,0.5,0.1,1.1,0.2,1.6h-2.9c0-0.4-0.1-0.8-0.2-1.1
	c-1.1,0.9-2.1,1.4-3.6,1.4c-2.1,0-3.1-1.4-3.1-3.3c0-3.2,2.1-5,6.5-6.7v-0.9c0-1.2-0.5-1.9-1.5-1.9c-1.4,0-1.7,0.8-1.8,2.1H266.3z
	 M272.6,40.3c-2.8,1.6-3.5,2.6-3.5,3.9c0,1,0.5,1.3,1.4,1.3c0.8,0,1.5-0.6,2.1-1.4V40.3z"/>
<path class="st4" d="M278.8,47.7V28h3.1v19.7H278.8z"/>
<path class="st4" d="M290.4,37.1c-0.2-1.2-0.8-1.8-1.8-1.8c-0.8,0-1.3,0.4-1.3,1.2c0,2.3,5.7,3.2,5.7,7.6c0,2.6-1.8,4-4.3,4
	c-2.7,0-4.2-1.5-4.7-4.1l2.7-0.7c0.2,1.2,0.6,2.3,2,2.3c0.8,0,1.4-0.5,1.4-1.3c0-2.5-5.7-3.5-5.7-7.5c0-2.3,1.8-3.9,4.1-3.9
	c2.4,0,4,1.6,4.5,3.9L290.4,37.1z"/>
<path class="st4" d="M108.9,55.2c0-2.8,1.6-5.1,5.2-5.1s5.2,2.3,5.2,5.1v10.2c0,2.8-1.6,5.1-5.2,5.1s-5.2-2.3-5.2-5.1V55.2z
	 M112.2,65.3c0,1.5,0.4,2.2,1.8,2.2s1.8-0.7,1.8-2.2v-10c0-1.5-0.4-2.2-1.8-2.2s-1.8,0.7-1.8,2.2V65.3z"/>
<path class="st4" d="M125.3,55.4V57h0.1c1-1.3,1.7-1.8,3.3-1.8c1.9,0,3.1,1.4,3.1,4.1v7.1c0,2.7-1.2,4.1-3.1,4.1
	c-1.3,0-2-0.5-3.2-1.5v5.9h-3.1V55.4L125.3,55.4L125.3,55.4z M125.4,67.1c0.6,0.4,1.1,0.8,1.7,0.8c0.8,0,1.5-0.4,1.5-2.4v-5.5
	c0-1.9-0.7-2.4-1.5-2.4c-0.6,0-1.1,0.3-1.8,0.8L125.4,67.1L125.4,67.1z"/>
<path class="st4" d="M133.3,58v-2.5h1.7v-4h3.1v4h2.1V58h-2.1v8.5c0,0.8,0.3,1.2,1,1.2h1v2.6c-0.4,0.1-0.8,0.2-1.5,0.2
	c-2.3,0-3.6-1.1-3.6-3.3V58C135,58,133.3,58,133.3,58z"/>
<path class="st4" d="M141.9,60.6c0-3.2,1.3-5.5,4.8-5.5s4.8,2.2,4.8,5.5V65c0,3.2-1.3,5.5-4.8,5.5s-4.8-2.2-4.8-5.5V60.6z
	 M148.4,60.1c0-1.7-0.6-2.4-1.7-2.4s-1.7,0.7-1.7,2.4v5.4c0,1.7,0.6,2.4,1.7,2.4s1.7-0.7,1.7-2.4V60.1z"/>
<path class="st4" d="M163.6,63.4h-6.5v2.1c0,1.7,0.6,2.4,1.7,2.4s1.7-0.7,1.7-2.4v-0.3h3.1c-0.1,3.1-1.3,5.3-4.8,5.3
	c-3.5,0-4.8-2.2-4.8-5.5v-4.3c0-3.2,1.3-5.5,4.8-5.5s4.8,2.2,4.8,5.5L163.6,63.4L163.6,63.4z M160.5,60.9v-0.8
	c0-1.7-0.6-2.4-1.7-2.4s-1.7,0.7-1.7,2.4v0.8L160.5,60.9L160.5,60.9z"/>
<path class="st4" d="M166.4,70.1V50.4h3.1v19.7H166.4z"/>
<path class="st4" d="M181.8,63.4h-6.5v2.1c0,1.7,0.6,2.4,1.7,2.4s1.7-0.7,1.7-2.4v-0.3h3.1c-0.1,3.1-1.3,5.3-4.8,5.3
	c-3.5,0-4.8-2.2-4.8-5.5v-4.3c0-3.2,1.3-5.5,4.8-5.5s4.8,2.2,4.8,5.5L181.8,63.4L181.8,63.4z M178.7,60.9v-0.8
	c0-1.7-0.6-2.4-1.7-2.4s-1.7,0.7-1.7,2.4v0.8L178.7,60.9L178.7,60.9z"/>
<path class="st4" d="M190.9,60.5v-0.4c0-1.7-0.6-2.4-1.7-2.4c-1.1,0-1.7,0.7-1.7,2.4v5.4c0,1.7,0.6,2.4,1.7,2.4s1.7-0.7,1.7-2.4
	v-0.9h3.1V65c0,3.2-1.3,5.5-4.8,5.5s-4.8-2.2-4.8-5.5v-4.3c0-3.2,1.3-5.5,4.8-5.5c3.4,0,4.7,2.2,4.8,5.3L190.9,60.5L190.9,60.5z"/>
<path class="st4" d="M195.5,58v-2.5h1.7v-4h3.1v4h2.1V58h-2.1v8.5c0,0.8,0.3,1.2,1,1.2h1v2.6c-0.4,0.1-0.8,0.2-1.5,0.2
	c-2.3,0-3.6-1.1-3.6-3.3V58C197.2,58,195.5,58,195.5,58z"/>
<path class="st4" d="M204.3,70.1V55.4h2.9v1.7h0.1c0.7-1.3,2-2,3.5-2h0.6v3.2c-0.5-0.1-1.1-0.3-2-0.3c-1,0-2.1,0.7-2.1,2v10.1H204.3
	z"/>
<path class="st4" d="M213.3,60.6c0-3.2,1.3-5.5,4.8-5.5s4.8,2.2,4.8,5.5V65c0,3.2-1.3,5.5-4.8,5.5s-4.8-2.2-4.8-5.5V60.6z
	 M219.7,60.1c0-1.7-0.6-2.4-1.7-2.4s-1.7,0.7-1.7,2.4v5.4c0,1.7,0.6,2.4,1.7,2.4s1.7-0.7,1.7-2.4V60.1z"/>
<path class="st4" d="M225.6,70.1V55.4h2.9v1.5c1.3-1.1,1.9-1.8,3.7-1.8c1.6,0,2.6,1.2,2.6,3.1v11.9h-3.1V58.7c0-0.7-0.4-1.1-1.1-1.1
	c-0.7,0-1.3,0.4-2,0.9v11.5L225.6,70.1L225.6,70.1L225.6,70.1z"/>
<path class="st4" d="M237.8,53.2v-2.8h3.1v2.8H237.8z M237.8,70.1V55.4h3.1v14.7H237.8z"/>
<path class="st4" d="M250.1,60.5v-0.4c0-1.7-0.6-2.4-1.7-2.4s-1.7,0.7-1.7,2.4v5.4c0,1.7,0.6,2.4,1.7,2.4c1.1,0,1.7-0.7,1.7-2.4
	v-0.9h3.1V65c0,3.2-1.3,5.5-4.8,5.5s-4.8-2.2-4.8-5.5v-4.3c0-3.2,1.3-5.5,4.8-5.5c3.4,0,4.7,2.2,4.8,5.3L250.1,60.5L250.1,60.5z"/>
<path class="st4" d="M261.5,59.5c-0.2-1.2-0.8-1.8-1.8-1.8c-0.8,0-1.3,0.4-1.3,1.2c0,2.3,5.7,3.2,5.7,7.6c0,2.6-1.8,4-4.3,4
	c-2.7,0-4.2-1.5-4.7-4.1l2.7-0.7c0.2,1.2,0.6,2.3,2,2.3c0.8,0,1.4-0.5,1.4-1.3c0-2.5-5.7-3.5-5.7-7.5c0-2.3,1.8-3.9,4.1-3.9
	c2.4,0,4,1.6,4.5,3.9L261.5,59.5z"/>
<path class="st4" d="M272.6,70.1V50.4h3.4v16.8h5.3v3H272.6z"/>
<path class="st4" d="M283,59.8c0.2-3,2.1-4.6,4.9-4.6c2.8,0,4.5,1.3,4.5,4v9.4c0,0.5,0.1,1.1,0.2,1.6h-2.9c0-0.4-0.1-0.8-0.2-1.1
	c-1.1,0.9-2.1,1.4-3.6,1.4c-2.1,0-3.1-1.4-3.1-3.3c0-3.2,2.1-5,6.5-6.7v-0.9c0-1.2-0.5-1.9-1.5-1.9c-1.4,0-1.7,0.8-1.8,2.1H283z
	 M289.3,62.7c-2.8,1.6-3.5,2.6-3.5,3.9c0,1,0.5,1.3,1.4,1.3c0.8,0,1.5-0.6,2.1-1.4V62.7z"/>
<path class="st4" d="M295.4,70.1V50.4h3.1v6.3c1.2-1,1.8-1.5,3.2-1.5c1.9,0,3.1,1.4,3.1,4.1v7.1c0,2.7-1.2,4.1-3.1,4.1
	c-1.5,0-2.3-0.5-3.3-1.8h-0.1v1.5L295.4,70.1L295.4,70.1z M298.5,67.1c0.6,0.4,1.1,0.8,1.8,0.8c0.8,0,1.5-0.4,1.5-2.4v-5.5
	c0-1.9-0.7-2.4-1.5-2.4c-0.6,0-1.1,0.3-1.8,0.8V67.1z"/>
</svg>
